<svg width="249" height="85" viewBox="0 0 249 85" fill="none" xmlns="http://www.w3.org/2000/svg">
<path d="M7.0835 8.85417V42.5C7.0835 47.8715 8.146 52.8299 10.271 57.375C12.396 61.9201 15.3179 65.816 19.0366 69.0625C17.5019 66.8195 16.3072 64.3556 15.4525 61.671C14.5977 58.9865 14.1692 56.1378 14.1668 53.125C14.1668 48.757 15.0676 44.1965 16.8691 39.4435C18.6706 34.6906 21.6657 29.1869 25.8543 22.9323L7.0835 8.85417ZM42.5002 12.1302C34.6495 21.5747 29.1457 29.7063 25.9889 36.5252C22.8321 43.3441 21.2525 48.8774 21.2502 53.125C21.2502 59.0278 23.3161 64.0451 27.4481 68.1771C31.58 72.309 36.5974 74.375 42.5002 74.375C48.4029 74.375 53.4203 72.309 57.5522 68.1771C61.6842 64.0451 63.7502 59.0278 63.7502 53.125C63.7502 48.875 62.1564 43.3122 58.9689 36.4367C55.7814 29.5611 50.2918 21.4613 42.5002 12.1302ZM77.9168 8.85417L59.146 22.9323C63.337 29.1892 66.3332 34.6942 68.1348 39.4471C69.9363 44.2 70.8359 48.7593 70.8335 53.125C70.8335 56.1354 70.405 58.9841 69.5479 61.671C68.6908 64.358 67.4972 66.8218 65.9672 69.0625C69.686 65.816 72.6079 61.9201 74.7329 57.375C76.8579 52.8299 77.9192 47.8715 77.9168 42.5V8.85417Z" fill="#A3B18A"/>
<path d="M101.56 52.24C101.1 52.24 100.72 52.14 100.42 51.94C100.12 51.72 99.94 51.44 99.88 51.1C99.8 50.74 99.89 50.35 100.15 49.93L111.16 31.93C111.44 31.47 111.75 31.14 112.09 30.94C112.43 30.72 112.85 30.61 113.35 30.61C113.87 30.61 114.3 30.74 114.64 31C114.98 31.26 115.22 31.65 115.36 32.17L120.52 49.84C120.68 50.38 120.71 50.83 120.61 51.19C120.51 51.53 120.32 51.79 120.04 51.97C119.76 52.15 119.42 52.24 119.02 52.24C118.46 52.24 118.03 52.1 117.73 51.82C117.45 51.54 117.23 51.11 117.07 50.53L115.96 46.3L117.16 47.11H104.74L106.24 46.39L103.48 51.1C103.26 51.48 102.99 51.77 102.67 51.97C102.37 52.15 102 52.24 101.56 52.24ZM112.9 35.02L107.2 44.74L106.54 44.05H116.35L115.54 44.8L112.96 35.02H112.9ZM132.554 52.3C131.514 52.3 130.624 52.08 129.884 51.64C129.144 51.2 128.614 50.52 128.294 49.6C127.994 48.68 127.954 47.51 128.174 46.09L129.344 38.83C129.444 38.23 129.664 37.79 130.004 37.51C130.344 37.23 130.804 37.09 131.384 37.09C132.004 37.09 132.454 37.27 132.734 37.63C133.034 37.97 133.134 38.48 133.034 39.16L131.954 46.06C131.794 47.16 131.874 47.98 132.194 48.52C132.534 49.06 133.154 49.33 134.054 49.33C135.174 49.33 136.084 48.96 136.784 48.22C137.484 47.48 137.934 46.47 138.134 45.19L139.124 38.83C139.224 38.23 139.444 37.79 139.784 37.51C140.124 37.23 140.584 37.09 141.164 37.09C141.804 37.09 142.264 37.27 142.544 37.63C142.824 37.99 142.914 38.51 142.814 39.19L141.044 50.47C140.864 51.65 140.184 52.24 139.004 52.24C138.424 52.24 137.994 52.08 137.714 51.76C137.434 51.44 137.334 50.95 137.414 50.29L137.714 48.13L137.924 48.94C137.404 50.04 136.674 50.88 135.734 51.46C134.814 52.02 133.754 52.3 132.554 52.3ZM150.737 52.24C150.137 52.24 149.697 52.06 149.417 51.7C149.157 51.32 149.077 50.79 149.177 50.11L150.947 38.89C151.047 38.29 151.277 37.84 151.637 37.54C151.997 37.24 152.467 37.09 153.047 37.09C153.627 37.09 154.047 37.27 154.307 37.63C154.587 37.99 154.677 38.51 154.577 39.19L154.307 40.87H154.007C154.407 39.69 155.067 38.78 155.987 38.14C156.907 37.48 157.997 37.11 159.257 37.03C159.817 36.99 160.187 37.07 160.367 37.27C160.567 37.47 160.667 37.8 160.667 38.26C160.667 38.92 160.517 39.41 160.217 39.73C159.917 40.03 159.447 40.21 158.807 40.27L157.937 40.36C156.597 40.5 155.637 40.91 155.057 41.59C154.477 42.25 154.087 43.18 153.887 44.38L152.927 50.44C152.847 51.04 152.617 51.49 152.237 51.79C151.877 52.09 151.377 52.24 150.737 52.24ZM169.689 52.3C168.789 52.3 167.969 52.1 167.229 51.7C166.489 51.28 165.889 50.73 165.429 50.05C164.989 49.37 164.769 48.61 164.769 47.77C164.769 46.73 165.059 45.89 165.639 45.25C166.219 44.59 167.119 44.1 168.339 43.78C169.559 43.46 171.119 43.3 173.019 43.3H175.419L175.089 45.46H173.199C172.019 45.46 171.079 45.52 170.379 45.64C169.679 45.76 169.179 45.97 168.879 46.27C168.579 46.57 168.429 46.99 168.429 47.53C168.429 48.23 168.659 48.77 169.119 49.15C169.599 49.53 170.179 49.72 170.859 49.72C171.499 49.72 172.079 49.59 172.599 49.33C173.119 49.05 173.559 48.66 173.919 48.16C174.279 47.64 174.509 47.03 174.609 46.33L175.179 42.76C175.339 41.82 175.189 41.1 174.729 40.6C174.289 40.1 173.509 39.85 172.389 39.85C171.729 39.85 171.089 39.92 170.469 40.06C169.849 40.18 169.209 40.39 168.549 40.69C168.169 40.85 167.829 40.9 167.529 40.84C167.229 40.78 166.979 40.65 166.779 40.45C166.599 40.23 166.499 39.98 166.479 39.7C166.459 39.4 166.539 39.11 166.719 38.83C166.919 38.55 167.239 38.31 167.679 38.11C168.519 37.73 169.389 37.46 170.289 37.3C171.209 37.12 172.069 37.03 172.869 37.03C174.449 37.03 175.689 37.32 176.589 37.9C177.489 38.48 178.099 39.27 178.419 40.27C178.739 41.27 178.799 42.41 178.599 43.69L177.549 50.38C177.469 51 177.249 51.47 176.889 51.79C176.549 52.09 176.089 52.24 175.509 52.24C174.969 52.24 174.559 52.07 174.279 51.73C174.019 51.37 173.939 50.85 174.039 50.17L174.339 48.28L174.549 48.88C174.269 49.66 173.869 50.31 173.349 50.83C172.849 51.33 172.279 51.7 171.639 51.94C171.019 52.18 170.369 52.3 169.689 52.3ZM187.775 52C187.095 52 186.595 51.82 186.275 51.46C185.975 51.08 185.875 50.55 185.975 49.87L188.765 32.38C188.865 31.78 189.085 31.34 189.425 31.06C189.765 30.76 190.235 30.61 190.835 30.61C191.475 30.61 191.945 30.8 192.245 31.18C192.545 31.54 192.645 32.05 192.545 32.71L190.025 48.73H198.395C198.955 48.73 199.385 48.85 199.685 49.09C199.985 49.31 200.135 49.63 200.135 50.05C200.135 50.67 199.955 51.15 199.595 51.49C199.255 51.83 198.785 52 198.185 52H187.775ZM208.161 52.24C207.581 52.24 207.151 52.05 206.871 51.67C206.611 51.27 206.531 50.73 206.631 50.05L208.401 38.95C208.501 38.33 208.731 37.87 209.091 37.57C209.451 37.25 209.941 37.09 210.561 37.09C211.141 37.09 211.561 37.28 211.821 37.66C212.101 38.04 212.191 38.58 212.091 39.28L210.321 50.38C210.221 51 209.991 51.47 209.631 51.79C209.291 52.09 208.801 52.24 208.161 52.24ZM211.041 34.33C210.361 34.33 209.851 34.17 209.511 33.85C209.191 33.51 209.061 33.04 209.121 32.44C209.201 31.76 209.461 31.25 209.901 30.91C210.341 30.55 210.931 30.37 211.671 30.37C212.351 30.37 212.861 30.54 213.201 30.88C213.541 31.2 213.671 31.66 213.591 32.26C213.511 32.94 213.251 33.46 212.811 33.82C212.391 34.16 211.801 34.33 211.041 34.33ZM221.027 52.24C220.447 52.24 220.017 52.05 219.737 51.67C219.477 51.27 219.397 50.73 219.497 50.05L221.087 40.15H219.827C219.347 40.15 218.977 40.05 218.717 39.85C218.477 39.65 218.357 39.37 218.357 39.01C218.357 38.49 218.507 38.08 218.807 37.78C219.127 37.48 219.547 37.33 220.067 37.33H221.927L221.447 37.72L221.627 36.61C221.907 34.89 222.587 33.53 223.667 32.53C224.747 31.53 226.327 30.96 228.407 30.82L229.367 30.76C229.767 30.74 230.077 30.82 230.297 31C230.517 31.16 230.657 31.38 230.717 31.66C230.797 31.92 230.797 32.19 230.717 32.47C230.657 32.75 230.527 32.99 230.327 33.19C230.147 33.39 229.907 33.5 229.607 33.52L228.797 33.58C227.757 33.66 226.967 33.94 226.427 34.42C225.887 34.9 225.537 35.61 225.377 36.55L225.197 37.63L224.927 37.33H227.627C228.107 37.33 228.467 37.43 228.707 37.63C228.967 37.81 229.097 38.08 229.097 38.44C229.097 38.98 228.937 39.4 228.617 39.7C228.317 40 227.907 40.15 227.387 40.15H224.837L223.217 50.38C222.997 51.62 222.267 52.24 221.027 52.24ZM240.544 52.3C239.064 52.3 237.774 52.03 236.674 51.49C235.594 50.93 234.754 50.15 234.154 49.15C233.554 48.15 233.254 46.98 233.254 45.64C233.254 44 233.594 42.54 234.274 41.26C234.974 39.96 235.934 38.93 237.154 38.17C238.374 37.41 239.774 37.03 241.354 37.03C242.574 37.03 243.594 37.24 244.414 37.66C245.234 38.08 245.884 38.65 246.364 39.37C246.844 40.07 247.164 40.87 247.324 41.77C247.484 42.67 247.514 43.59 247.414 44.53C247.374 44.95 247.264 45.22 247.084 45.34C246.904 45.46 246.654 45.52 246.334 45.52H236.254L236.554 43.36H244.954L244.444 43.81C244.564 43.01 244.534 42.3 244.354 41.68C244.174 41.04 243.834 40.53 243.334 40.15C242.854 39.77 242.184 39.58 241.324 39.58C240.444 39.58 239.704 39.78 239.104 40.18C238.504 40.58 238.034 41.1 237.694 41.74C237.354 42.36 237.124 43.03 237.004 43.75L236.854 44.68C236.614 46.14 236.854 47.3 237.574 48.16C238.294 49.02 239.394 49.45 240.874 49.45C241.474 49.45 242.094 49.39 242.734 49.27C243.374 49.13 243.954 48.91 244.474 48.61C244.854 48.39 245.184 48.3 245.464 48.34C245.764 48.36 245.994 48.47 246.154 48.67C246.334 48.85 246.444 49.08 246.484 49.36C246.524 49.62 246.474 49.9 246.334 50.2C246.214 50.48 245.994 50.73 245.674 50.95C244.974 51.41 244.144 51.75 243.184 51.97C242.224 52.19 241.344 52.3 240.544 52.3Z" fill="white"/>
</svg>
